<svg width="33" height="32" viewBox="0 0 33 32" fill="none" xmlns="http://www.w3.org/2000/svg">
<path fill-rule="evenodd" clip-rule="evenodd" d="M16.4051 0C7.34599 0 0 7.34436 0 16.4051C0 23.6535 4.70055 29.8026 11.2188 31.9721C12.0384 32.1242 12.3394 31.6162 12.3394 31.1829C12.3394 30.7917 12.3242 29.4994 12.3171 28.1286C7.75321 29.121 6.79017 26.193 6.79017 26.193C6.04392 24.2968 4.96868 23.7926 4.96868 23.7926C3.47998 22.7744 5.08088 22.7956 5.08088 22.7956C6.72796 22.9111 7.59565 24.4862 7.59565 24.4862C9.05881 26.9936 11.4334 26.2688 12.3695 25.8499C12.5168 24.7896 12.9419 24.0656 13.4111 23.656C9.76731 23.2417 5.93661 21.8348 5.93661 15.5488C5.93661 13.7577 6.57773 12.2943 7.62716 11.1452C7.45656 10.7322 6.89503 9.0637 7.78581 6.80403C7.78581 6.80403 9.16313 6.36312 12.2981 8.48561C13.607 8.12185 15.0106 7.93903 16.4051 7.93278C17.7987 7.93903 19.2032 8.12131 20.5145 8.48507C23.6457 6.36258 25.0214 6.80348 25.0214 6.80348C25.9143 9.06289 25.3528 10.7317 25.1824 11.1446C26.2343 12.2938 26.8708 13.7572 26.8708 15.5483C26.8708 21.8492 23.0331 23.2363 19.38 23.6427C19.9687 24.1518 20.493 25.1504 20.493 26.6807C20.493 28.8757 20.474 30.6423 20.474 31.1826C20.474 31.6192 20.7696 32.1307 21.6009 31.9696C28.1153 29.798 32.8104 23.6508 32.8104 16.4051C32.8102 7.3449 25.465 0 16.4051 0Z" fill="#ABABAB"/>
<path d="M6.21345 23.5539C6.17732 23.6354 6.04909 23.6598 5.93228 23.6041C5.81275 23.5509 5.74619 23.4398 5.78477 23.358C5.82008 23.2738 5.94858 23.2507 6.06729 23.3069C6.18682 23.3605 6.25474 23.4727 6.21318 23.5542L6.21345 23.5539ZM6.87793 24.2953C6.79996 24.3678 6.64702 24.3341 6.54324 24.2192C6.43567 24.1051 6.41556 23.9521 6.49516 23.8785C6.57611 23.8063 6.72444 23.8405 6.83202 23.9546C6.93905 24.0703 6.96024 24.2219 6.8782 24.2955L6.87793 24.2953ZM7.52503 25.2398C7.42451 25.3099 7.25989 25.2444 7.15828 25.0986C7.05777 24.9524 7.05777 24.7772 7.161 24.7074C7.26233 24.6373 7.42451 24.7006 7.52774 24.8451C7.62772 24.9931 7.62772 25.1686 7.52503 25.2398ZM8.41092 26.1529C8.32127 26.252 8.12947 26.2254 7.9893 26.0904C7.84613 25.9581 7.8062 25.7698 7.89612 25.6709C7.9874 25.5715 8.18 25.5992 8.321 25.7334C8.46416 25.8655 8.50735 26.054 8.41146 26.1526L8.41092 26.1529ZM9.63339 26.6829C9.59346 26.8114 9.40927 26.8698 9.22318 26.8149C9.03764 26.7587 8.9162 26.6084 8.95424 26.4786C8.99227 26.349 9.17781 26.2884 9.36499 26.3468C9.55053 26.4028 9.67197 26.5522 9.63339 26.6829ZM10.9762 26.7809C10.9808 26.9162 10.8233 27.0282 10.6285 27.0309C10.4321 27.0355 10.2732 26.9257 10.2713 26.7926C10.2713 26.656 10.4256 26.5454 10.6217 26.5416C10.8165 26.5381 10.9765 26.6467 10.9765 26.7807L10.9762 26.7809ZM12.2253 26.5685C12.2487 26.7003 12.1131 26.8358 11.9194 26.872C11.7293 26.9073 11.5527 26.8252 11.5282 26.6946C11.5049 26.5593 11.6429 26.4237 11.833 26.3887C12.027 26.3553 12.2009 26.4346 12.2253 26.5685Z" fill="#ABABAB"/>
</svg>
