<svg width="24" height="24"  id="Layer_2" data-name="Layer 2" xmlns="http://www.w3.org/2000/svg" viewBox="0 0 32 32" fill="currentColor">
  <g id="Layer_1-2" data-name="Layer 1">
    <path class="cls-1" fill="currentColor" d="M27.56,0H4.44C1.99,0,0,1.99,0,4.44v23.11c0,2.46,1.99,4.44,4.44,4.44h23.11c2.46,0,4.44-1.99,4.44-4.44V4.44c0-2.46-1.99-4.44-4.44-4.44ZM9.78,26.67h-4.44v-15.11h4.44v15.11ZM7.54,9.78h-.02c-1.33,0-2.18-.99-2.18-2.22s.88-2.22,2.23-2.22,2.18.96,2.21,2.22c0,1.23-.86,2.22-2.24,2.22ZM22.22,26.67v-8.09c0-1.95-1.09-3.29-2.84-3.29-1.33,0-2.06.9-2.41,1.77-.13.31-.09,1.17-.09,1.61v8h-4.44v-15.11h4.44v2.33c.64-.99,1.64-2.33,4.21-2.33,3.18,0,5.57,2,5.57,6.47v8.65s-4.44,0-4.44,0Z"/>
  </g>
</svg>