<svg width="32" height="32" viewBox="0 0 32 32" fill="none" xmlns="http://www.w3.org/2000/svg">
<path d="M32 27.5556C32 30.0107 30.0107 32 27.5556 32H4.44444C1.99022 32 0 30.0107 0 27.5556V4.44444C0 1.98933 1.99022 0 4.44444 0H27.5556C30.0107 0 32 1.98933 32 4.44444V27.5556Z" fill="#ABABAB"/>
<path d="M9.77782 11.5555H5.33337V26.6667H9.77782V11.5555Z" fill="white"/>
<path d="M7.54226 9.77776H7.51737C6.19115 9.77776 5.33337 8.78931 5.33337 7.55465C5.33337 6.29331 6.21782 5.33331 7.56804 5.33331C8.92004 5.33331 9.75293 6.29331 9.77782 7.55465C9.77782 8.78842 8.92004 9.77776 7.54226 9.77776Z" fill="white"/>
<path d="M26.6667 26.6667H22.2222V18.5787C22.2222 16.6249 21.1333 15.2915 19.3849 15.2915C18.0507 15.2915 17.3289 16.1911 16.9787 17.0604C16.8507 17.3715 16.8889 18.232 16.8889 18.6667V26.6667H12.4445V11.5555H16.8889V13.8809C17.5298 12.8889 18.5333 11.5555 21.1005 11.5555C24.2809 11.5555 26.6658 13.5555 26.6658 18.0213L26.6667 26.6667Z" fill="white"/>
</svg>
