<svg width="52" height="32" viewBox="0 0 58 32" fill="currentColor" xmlns="http://www.w3.org/2000/svg">
<path d="M23.0774 4.19273C22.7954 4.52825 22.3387 4.69575 21.7077 4.69575C21.6623 5.16548 21.5611 5.98202 21.4036 7.14428C21.1779 8.7097 21.054 9.58207 21.0318 9.76084C19.0252 24.5868 14.8443 32 8.4874 32C6.61611 32 5.15662 31.4744 4.10841 30.4233C3.06021 29.3722 2.53637 28.0531 2.53637 26.4652C2.53637 23.6258 3.75342 21.115 6.18806 18.9349C8.62269 16.7548 11.8231 14.9489 15.7908 13.5176C16.0386 11.9302 16.2302 10.5103 16.3655 9.25782L16.9743 4.19273C15.6219 4.05852 14.3589 3.99141 13.1873 3.99141C10.054 3.99141 7.74332 4.29312 6.2557 4.89706C4.76808 5.50101 4.02399 6.48503 4.02399 7.84861C4.02399 8.51966 4.24911 9.24654 4.70043 10.0287C4.83572 10.2526 4.90336 10.4872 4.90336 10.7331C4.90336 11.2028 4.66093 11.6221 4.1766 11.9909C3.69173 12.3597 3.16735 12.5444 2.60456 12.5444C1.88266 12.5444 1.33069 12.2427 0.947554 11.6387C0.315491 10.6112 0 9.41458 0 8.05046C0 2.68367 4.73398 0 14.2014 0C16.9515 0 19.4084 0.26842 21.5724 0.805261C22.8571 1.11878 23.5 1.74473 23.5 2.68367C23.5 3.35472 23.3588 3.85774 23.0774 4.19326V4.19273ZM12.2403 25.9289C13.3442 24.2743 14.314 21.3786 15.1484 17.2412C9.64817 19.6344 6.89805 22.5634 6.89805 26.0298C6.89805 26.7905 7.07825 27.3773 7.4392 27.7906C7.7996 28.2045 8.2953 28.4112 8.92682 28.4112C10.0308 28.4112 11.1358 27.5839 12.2403 25.9289Z" fill="currentColor"/>
<path d="M39.3173 16.6747C39.456 16.9669 39.5157 17.3322 39.4965 17.771C39.4501 18.8241 39.1093 19.4356 38.4735 19.6044C37.1557 20.0065 35.7167 20.2056 34.1567 20.2007C33.6649 22.0254 32.7887 23.4643 31.5294 24.5174C30.2692 25.571 28.8718 26.0629 27.3368 25.9936C26.0392 25.9351 24.9448 25.5672 24.0536 24.8891C23.1618 24.2111 22.5016 23.335 22.0722 22.2603C21.6424 21.1856 21.4552 20.0341 21.509 18.8052C21.5821 17.1379 21.9608 15.6655 22.6456 14.3879C23.3299 13.1108 24.2397 12.1297 25.3752 11.4441C26.5102 10.759 27.7481 10.4468 29.0894 10.5074C30.7326 10.5815 32.0324 11.2174 32.9876 12.4149C33.9428 13.6124 34.4692 15.06 34.5684 16.757C35.5876 16.7369 36.8079 16.5724 38.2303 16.2629C38.4053 16.2272 38.5578 16.2115 38.6874 16.2174C38.968 16.2299 39.1786 16.383 39.3173 16.6747ZM29.5875 21.7424C30.1204 21.1948 30.4974 20.3874 30.7177 19.3203C30.0676 18.829 29.5801 18.2029 29.2563 17.4404C28.9321 16.6785 28.7886 15.8809 28.8249 15.0464C28.8403 14.6958 28.8883 14.3457 28.9683 13.9977L28.8062 13.9901C27.9411 13.9512 27.203 14.3413 26.5934 15.1595C25.9832 15.9788 25.6446 17.1563 25.5768 18.6915C25.524 19.8988 25.7155 20.8306 26.1528 21.4876C26.5896 22.145 27.1214 22.4876 27.7491 22.5163C28.4409 22.5476 29.0537 22.2895 29.587 21.7419L29.5875 21.7424Z" fill="currentColor"/>
<path d="M51.2565 17.9785C51.4382 18.3008 51.5184 18.7372 51.4965 19.2878C51.4591 20.2315 51.2063 21.0352 50.7393 21.6988C49.9693 22.7967 48.9824 23.6361 47.779 24.2175C46.5751 24.7988 45.158 25.0563 43.5261 24.9898C41.0398 24.8886 39.1397 24.0568 37.8273 22.4938C36.5139 20.9308 35.909 18.8649 36.0111 16.2959C36.0827 14.4869 36.5246 12.8184 37.3378 11.2889C38.1506 9.76002 39.2423 8.56371 40.6129 7.70001C41.9829 6.83684 43.5096 6.43933 45.1933 6.50748C46.6948 6.56859 47.8816 7.0694 48.7526 8.01098C49.623 8.95202 50.0281 10.1965 49.9666 11.7427C49.895 13.5512 49.1924 15.0785 47.8586 16.3241C46.5249 17.5696 44.302 18.5101 41.19 19.1445C41.7638 20.3759 42.7887 21.0212 44.2651 21.0812C45.3269 21.1245 46.2107 20.9108 46.9171 20.4408C47.623 19.9709 48.4528 19.1639 49.4061 18.0217C49.7326 17.641 50.0901 17.4587 50.4785 17.4744C50.8152 17.4879 51.0743 17.6561 51.2565 17.9785ZM41.8851 11.926C41.1798 13.0266 40.7956 14.3765 40.732 15.9752L40.7288 16.0536C42.2709 15.7492 43.4973 15.2473 44.4073 14.5491C45.3167 13.8514 45.7912 13.0169 45.8297 12.0466C45.8495 11.5491 45.7292 11.1435 45.4696 10.8309C45.2093 10.5188 44.8465 10.3528 44.38 10.3338C43.4214 10.2949 42.59 10.826 41.8846 11.926H41.8851Z" fill="currentColor"/>
<path d="M52.2864 28.1616C51.7623 27.6022 51.5 26.8684 51.5 25.96C51.5 24.9113 51.797 24.0728 52.391 23.4436C52.985 22.8143 53.8179 22.5 54.8896 22.5C55.9612 22.5 56.6895 22.7506 57.2136 23.2512C57.7377 23.7523 58 24.4918 58 25.4706C58 26.5423 57.6968 27.3986 57.0911 28.0391C56.4848 28.6801 55.6581 29 54.6099 29C53.5617 29 52.81 28.7203 52.2859 28.161L52.2864 28.1616Z" fill="currentColor"/>
</svg>
