<svg width="24" height="23" viewBox="0 0 24 23" fill="none" xmlns="http://www.w3.org/2000/svg">
<path d="M23.3493 0.251682C23.8227 0.56607 24.0712 1.10951 23.9821 1.65295L20.9821 20.3366C20.9117 20.7722 20.6352 21.154 20.232 21.3696C19.8289 21.5851 19.3461 21.6121 18.9195 21.4414L13.3132 19.2093L10.1022 22.5373C9.68501 22.9729 9.02875 23.1167 8.45218 22.9011C7.87561 22.6855 7.5006 22.151 7.5006 21.5582V17.8035C7.5006 17.6239 7.57092 17.4532 7.69748 17.3229L15.5539 9.10844C15.8257 8.82549 15.8164 8.38984 15.5351 8.12036C15.2538 7.85089 14.7992 7.83292 14.5038 8.08893L4.96931 16.2046L0.830189 14.2195C0.333306 13.9815 0.014551 13.5054 0.000488236 12.9754C-0.0135745 12.4454 0.277055 11.9514 0.755187 11.6864L21.7555 0.188805C22.2571 -0.0851621 22.8758 -0.0582146 23.3493 0.251682Z" fill="white"/>
</svg>
