<svg width="48" height="32" viewBox="0 0 38 28" fill="currentColor" xmlns="http://www.w3.org/2000/svg">
<path d="M9.65596 12.816C11.832 12.816 13.56 13.456 14.84 14.736C16.1626 15.9733 16.824 17.6587 16.824 19.792C16.824 21.8827 16.12 23.632 14.712 25.04C13.304 26.4053 11.2773 27.088 8.63196 27.088C5.90129 27.088 3.81063 26.1707 2.35996 24.336C0.909293 22.4587 0.18396 20.0907 0.18396 17.232C0.18396 14.5013 0.82396 12.0693 2.10396 9.93599C3.38396 7.75999 5.02663 5.92532 7.03196 4.43199C9.07996 2.89599 11.1706 1.72266 13.304 0.911987L14.712 3.98399C13.176 4.53865 11.704 5.34932 10.296 6.41599C8.93063 7.48266 7.79996 8.71999 6.90396 10.128C6.05063 11.4933 5.60263 12.9013 5.55996 14.352C5.73063 14.0107 6.17863 13.6693 6.90396 13.328C7.67196 12.9867 8.58929 12.816 9.65596 12.816ZM30.584 12.816C32.76 12.816 34.488 13.456 35.768 14.736C37.0906 15.9733 37.752 17.6587 37.752 19.792C37.752 21.8827 37.048 23.632 35.64 25.04C34.232 26.4053 32.2053 27.088 29.56 27.088C26.8293 27.088 24.7386 26.1707 23.288 24.336C21.8373 22.4587 21.112 20.0907 21.112 17.232C21.112 14.5013 21.752 12.0693 23.032 9.93599C24.312 7.75999 25.9546 5.92532 27.96 4.43199C30.008 2.89599 32.0986 1.72266 34.232 0.911987L35.64 3.98399C34.104 4.53865 32.632 5.34932 31.224 6.41599C29.8586 7.48266 28.728 8.71999 27.832 10.128C26.9786 11.4933 26.5306 12.9013 26.488 14.352C26.6586 14.0107 27.1066 13.6693 27.832 13.328C28.6 12.9867 29.5173 12.816 30.584 12.816Z" fill="currentColor"/>
</svg>
