<?xml version="1.0" encoding="UTF-8"?>
<svg id="Header" xmlns="http://www.w3.org/2000/svg" baseProfile="tiny" version="1.2" viewBox="0 0 1080 1080">
  <sodipodi:namedview id="namedview837" bordercolor="#666666" borderopacity="1" gridtolerance="10" guidetolerance="10" objecttolerance="10" pagecolor="#ffffff" showgrid="false"/>
  <path d="M429.43,283.02c-5.21,6.25-13.65,9.37-25.31,9.37-.84,8.75-2.71,23.96-5.62,45.61-4.17,29.16-6.46,45.41-6.87,48.74-37.08,276.17-114.34,414.26-231.81,414.26-34.58,0-61.55-9.79-80.92-29.37-19.37-19.58-29.05-44.15-29.05-73.73,0-52.89,22.49-99.66,67.48-140.27,44.99-40.61,104.13-74.25,177.45-100.91,4.58-29.57,8.12-56.02,10.62-79.35l11.25-94.35c-24.99-2.5-48.33-3.75-69.98-3.75-57.9,0-100.6,5.62-128.09,16.87-27.49,11.25-41.24,29.58-41.24,54.98,0,12.5,4.16,26.04,12.5,40.61,2.5,4.17,3.75,8.54,3.75,13.12,0,8.75-4.48,16.56-13.43,23.43-8.96,6.87-18.65,10.31-29.05,10.31-13.34,0-23.54-5.62-30.62-16.87-11.67-19.15-17.5-41.44-17.5-66.86,0-99.97,87.48-149.96,262.43-149.96,50.82,0,96.22,5,136.21,15,23.74,5.84,35.62,17.5,35.62,34.99,0,12.5-2.61,21.87-7.81,28.12ZM229.17,687.91c20.4-30.82,38.32-84.76,53.74-161.83-101.64,44.58-152.46,99.14-152.46,163.71,0,14.17,3.33,25.1,10,32.8,6.66,7.71,15.82,11.56,27.49,11.56,20.4,0,40.82-15.41,61.23-46.24Z" fill="#16191f" stroke-width="0"/>
  <path d="M730.76,512.73c2.6,5.4,3.72,12.15,3.36,20.26-.87,19.46-7.26,30.76-19.18,33.88-24.71,7.43-51.69,11.11-80.94,11.02-9.22,33.72-25.65,60.31-49.26,79.77-23.63,19.47-49.83,28.56-78.61,27.28-24.33-1.08-44.85-7.88-61.56-20.41-16.72-12.53-29.1-28.72-37.15-48.58-8.06-19.86-11.57-41.14-10.56-63.85,1.37-30.81,8.47-58.02,21.31-81.63,12.83-23.6,29.89-41.73,51.18-54.4,21.28-12.66,44.49-18.43,69.64-17.31,30.81,1.37,55.18,13.12,73.09,35.25,17.91,22.13,27.78,48.88,29.64,80.24,19.11-.37,41.99-3.41,68.66-9.13,3.28-.66,6.14-.95,8.57-.84,5.26.23,9.21,3.06,11.81,8.45ZM548.33,606.38c9.99-10.12,17.06-25.04,21.19-44.76-12.19-9.08-21.33-20.65-27.4-34.74-6.08-14.08-8.77-28.82-8.09-44.24.29-6.48,1.19-12.95,2.69-19.38l-3.04-.14c-16.22-.72-30.06,6.49-41.49,21.61-11.44,15.14-17.79,36.9-19.06,65.27-.99,22.31,2.6,39.53,10.8,51.67,8.19,12.15,18.16,18.48,29.93,19.01,12.97.58,24.46-4.19,34.46-14.31Z" fill="#16191f" stroke-width="0"/>
  <path d="M951.9,539.16c3.4,5.96,4.9,14.03,4.49,24.21-.7,17.45-5.43,32.31-14.17,44.58-14.41,20.3-32.88,35.82-55.4,46.57-22.53,10.75-49.05,15.51-79.59,14.28-46.53-1.87-82.09-17.25-106.65-46.15-24.58-28.9-35.9-67.1-33.99-114.6,1.34-33.45,9.61-64.3,24.83-92.58,15.21-28.27,35.64-50.39,61.29-66.36,25.64-15.96,54.21-23.31,85.72-22.05,28.1,1.13,50.31,10.39,66.61,27.8,16.29,17.4,23.87,40.41,22.72,69-1.34,33.44-14.49,61.68-39.45,84.71-24.96,23.03-66.56,40.42-124.8,52.15,10.74,22.77,29.92,34.7,57.55,35.81,19.87.8,36.41-3.15,49.63-11.84,13.21-8.69,28.74-23.61,46.58-44.73,6.11-7.04,12.8-10.41,20.07-10.12,6.3.25,11.15,3.36,14.56,9.32ZM776.52,427.26c-13.2,20.35-20.39,45.31-21.58,74.87l-.06,1.45c28.86-5.63,51.81-14.91,68.84-27.82,17.02-12.9,25.9-28.33,26.62-46.27.37-9.2-1.88-16.7-6.74-22.48-4.87-5.77-11.66-8.84-20.39-9.19-17.94-.72-33.5,9.1-46.7,29.44Z" fill="#16191f" stroke-width="0"/>
  <path d="M970.51,728.18c-9.37-10-14.06-23.12-14.06-39.36,0-18.75,5.31-33.74,15.93-44.99,10.62-11.25,25.51-16.87,44.67-16.87s32.18,4.48,41.55,13.43c9.37,8.96,14.06,22.18,14.06,39.68,0,19.16-5.42,34.47-16.25,45.92-10.84,11.46-25.62,17.18-44.36,17.18s-32.18-5-41.55-15Z" fill="#d6be45" stroke-width="0"/>
</svg>